<svg width="24" height="22" viewBox="0 0 24 22" fill="none" xmlns="http://www.w3.org/2000/svg">
<path d="M23.6292 3.95928L17.7907 7.54946L12.1922 0.0966165C12.1697 0.0666201 12.1405 0.0422719 12.1069 0.0255016C12.0733 0.00873136 12.0363 0 11.9987 0C11.9612 0 11.9241 0.00873136 11.8905 0.0255016C11.8569 0.0422719 11.8277 0.0666201 11.8052 0.0966165L6.20975 7.54946L0.368276 3.95928C0.197262 3.85448 -0.0247559 3.99521 0.00224628 4.19583L2.29443 21.5808C2.32743 21.8173 2.53145 22 2.77447 22H21.229C21.469 22 21.676 21.8203 21.706 21.5808L23.9982 4.19583C24.0222 3.99521 23.8032 3.85448 23.6292 3.95928ZM19.8488 19.9519H4.14858L2.53445 7.69318L6.72879 10.2713L12.0002 3.25262L17.2716 10.2713L21.466 7.69318L19.8488 19.9519ZM12.0002 10.9211C10.1371 10.9211 8.62194 12.4332 8.62194 14.2926C8.62194 16.1521 10.1371 17.6642 12.0002 17.6642C13.8634 17.6642 15.3785 16.1521 15.3785 14.2926C15.3785 12.4332 13.8634 10.9211 12.0002 10.9211ZM12.0002 15.7389C11.2022 15.7389 10.5541 15.0921 10.5541 14.2926C10.5541 13.4962 11.2022 12.8464 12.0002 12.8464C12.7983 12.8464 13.4463 13.4932 13.4463 14.2926C13.4463 15.0891 12.7983 15.7389 12.0002 15.7389Z" fill="white"/>
</svg>
